<svg data-v-d3f97b9e="" xmlns="http://www.w3.org/2000/svg" viewBox="0 0 310 90"><!----><!----><!----><g data-v-d3f97b9e="" id="6a7c56d3-584b-4e26-be71-9a7e5a20b4b2" fill="#000000" transform="matrix(4.773269805623416,0,0,4.773269805623416,114.71018701977987,-6.861573438235027)"><path d="M8.05 14.35L5.12 4.58L3.29 4.58L0.36 14.35L1.75 14.35L2.53 11.65L5.82 11.65L6.61 14.35ZM5.53 10.50L2.83 10.50L4.12 5.98L4.24 5.98ZM12.66 14.52C14.56 14.52 15.76 13.66 15.76 12.22C15.76 10.70 14.41 10.36 13.31 10.21L12.18 10.04C11.55 9.94 10.98 9.76 10.98 9.06C10.98 8.37 11.56 7.99 12.63 7.99C13.85 7.99 14.49 8.47 14.84 8.89L15.64 8.11C14.97 7.39 14 6.96 12.68 6.96C10.92 6.96 9.69 7.71 9.69 9.17C9.69 10.70 11.06 11.03 12.14 11.19L13.27 11.35C13.92 11.45 14.48 11.63 14.48 12.32C14.48 13.12 13.73 13.48 12.68 13.48C11.56 13.48 10.78 13.08 10.12 12.38L9.30 13.12C10.01 13.97 11.13 14.52 12.66 14.52ZM22.05 10.15L21.06 12.77L20.99 12.77L19.99 10.15L18.80 7.13L17.44 7.13L20.36 14.22L19.61 16.07L17.93 16.07L17.93 17.15L19.07 17.15C20.19 17.15 20.65 16.72 21 15.85L24.56 7.13L23.24 7.13ZM27.79 14.35L27.79 9.39C27.79 8.48 28.63 8.06 29.48 8.06C30.53 8.06 31.09 8.68 31.09 9.93L31.09 14.35L32.40 14.35L32.40 9.70C32.40 7.95 31.40 6.96 29.92 6.96C28.73 6.96 28.15 7.60 27.85 8.33L27.79 8.33L27.79 7.13L26.49 7.13L26.49 14.35ZM38.07 14.52C39.54 14.52 40.46 13.80 40.89 12.82L39.96 12.21C39.59 12.95 39.00 13.43 38.08 13.43C36.79 13.43 36.09 12.56 36.09 11.35L36.09 10.12C36.09 8.92 36.81 8.05 38.05 8.05C38.92 8.05 39.49 8.48 39.76 9.20L40.78 8.64C40.36 7.64 39.48 6.96 38.05 6.96C35.97 6.96 34.71 8.44 34.71 10.74C34.71 13.03 35.95 14.52 38.07 14.52Z"></path></g><linearGradient data-v-d3f97b9e="" gradientTransform="rotate(25)" id="a75540be-95c5-4760-95c4-c9300d6d9f02" x1="0%" y1="0%" x2="100%" y2="0%"><stop data-v-d3f97b9e="" offset="0%" style="stop-color: rgb(0, 21, 214); stop-opacity: 1;"></stop><stop data-v-d3f97b9e="" offset="100%" style="stop-color: rgb(9, 137, 251); stop-opacity: 1;"></stop></linearGradient><g data-v-d3f97b9e="" id="c0059f96-875f-4504-bcda-974a65545597" transform="matrix(3.2142857142857144,0,0,3.2142857142857144,-15.285714285714292,-19.285714285714292)" stroke="none" fill="url(#a75540be-95c5-4760-95c4-c9300d6d9f02)"><path fill-rule="evenodd" clip-rule="evenodd" d="M34 10.9c.6-.2 1-.8 1-1.4 0-.8-.7-1.5-1.5-1.5S32 8.7 32 9.5c0 .7.4 1.2 1 1.4v5.3c-.1 0-.2-.1-.3-.1C31.3 10.3 26.2 6 20 6 13.8 6 8.7 10.3 7.3 16.1 6 16.4 5 17.6 5 19s1 2.6 2.3 2.9c.5 2 1.4 3.8 2.7 5.4V30s2 4 10 4 10-4 10-4v-2.7c1.3-1.5 2.2-3.4 2.7-5.4C34 21.6 35 20.4 35 19c0-.9-.4-1.7-1-2.2v-5.9zm-2.9 11c-.5 2-1.5 3.7-2.9 5.1-2.1 2.2-5 3.5-8.2 3.5-3.2 0-6.2-1.3-8.2-3.5-1.4-1.4-2.4-3.2-2.9-5.1-.3-1-.4-1.9-.4-2.9s.1-1.9.4-2.9c1.3-5 5.8-8.6 11.1-8.6 5.4 0 9.9 3.7 11.1 8.6.2.9.4 1.9.4 2.9s-.1 1.9-.4 2.9zM20 10c-5 0-9 4-9 9 0 .9.1 1.7.4 2.5 2-1.7 5.4-3.7 10.1-3.7-4.5 1.8-7.3 4.5-8.8 6.4C14.3 26.5 17 28 20 28c5 0 9-4 9-9s-4-9-9-9z"></path></g><!----></svg>