<svg data-v-d3f97b9e="" xmlns="http://www.w3.org/2000/svg" viewBox="0 0 64.28571428571428 60"><!----><!----><!----><!----><g data-v-d3f97b9e="" id="0cda04b4-a648-4a04-bc9e-24175fe4958b" transform="matrix(2.142857142857143,0,0,2.142857142857143,-10.714285305568147,-12.857142857142854)" stroke="none" fill="black"><path fill-rule="evenodd" clip-rule="evenodd" d="M34 10.9c.6-.2 1-.8 1-1.4 0-.8-.7-1.5-1.5-1.5S32 8.7 32 9.5c0 .7.4 1.2 1 1.4v5.3c-.1 0-.2-.1-.3-.1C31.3 10.3 26.2 6 20 6 13.8 6 8.7 10.3 7.3 16.1 6 16.4 5 17.6 5 19s1 2.6 2.3 2.9c.5 2 1.4 3.8 2.7 5.4V30s2 4 10 4 10-4 10-4v-2.7c1.3-1.5 2.2-3.4 2.7-5.4C34 21.6 35 20.4 35 19c0-.9-.4-1.7-1-2.2v-5.9zm-2.9 11c-.5 2-1.5 3.7-2.9 5.1-2.1 2.2-5 3.5-8.2 3.5-3.2 0-6.2-1.3-8.2-3.5-1.4-1.4-2.4-3.2-2.9-5.1-.3-1-.4-1.9-.4-2.9s.1-1.9.4-2.9c1.3-5 5.8-8.6 11.1-8.6 5.4 0 9.9 3.7 11.1 8.6.2.9.4 1.9.4 2.9s-.1 1.9-.4 2.9zM20 10c-5 0-9 4-9 9 0 .9.1 1.7.4 2.5 2-1.7 5.4-3.7 10.1-3.7-4.5 1.8-7.3 4.5-8.8 6.4C14.3 26.5 17 28 20 28c5 0 9-4 9-9s-4-9-9-9z"></path></g><!----></svg>