<svg data-v-29081953="" xmlns="http://www.w3.org/2000/svg" viewBox="0 0 300 300"><!----><defs data-v-29081953=""><!----></defs><rect data-v-29081953="" fill="transparent" x="0" y="0" width="300px" height="300px" class="logo-background-square"></rect><!----><defs data-v-29081953=""><linearGradient data-v-29081953="" gradientTransform="rotate(25)" id="d31637e5-0b5f-4f38-bfab-cddbdce23bbe" x1="0%" y1="0%" x2="100%" y2="0%"><stop data-v-29081953="" offset="0%" stop-color="#0015D6" stop-opacity="1"></stop><stop data-v-29081953="" offset="100%" stop-color="#0989FB" stop-opacity="1"></stop></linearGradient></defs><g data-v-29081953="" id="62f40d8b-39a1-4fe0-a6d2-5b6462f8fd63" fill="url(#d31637e5-0b5f-4f38-bfab-cddbdce23bbe)" stroke="none" transform="matrix(7.333333333333333,0,0,7.333333333333333,3.3333333333333357,3.333333333333343)"><path fill-rule="evenodd" clip-rule="evenodd" d="M34 10.9c.6-.2 1-.8 1-1.4 0-.8-.7-1.5-1.5-1.5S32 8.7 32 9.5c0 .7.4 1.2 1 1.4v5.3c-.1 0-.2-.1-.3-.1C31.3 10.3 26.2 6 20 6 13.8 6 8.7 10.3 7.3 16.1 6 16.4 5 17.6 5 19s1 2.6 2.3 2.9c.5 2 1.4 3.8 2.7 5.4V30s2 4 10 4 10-4 10-4v-2.7c1.3-1.5 2.2-3.4 2.7-5.4C34 21.6 35 20.4 35 19c0-.9-.4-1.7-1-2.2v-5.9zm-2.9 11c-.5 2-1.5 3.7-2.9 5.1-2.1 2.2-5 3.5-8.2 3.5-3.2 0-6.2-1.3-8.2-3.5-1.4-1.4-2.4-3.2-2.9-5.1-.3-1-.4-1.9-.4-2.9s.1-1.9.4-2.9c1.3-5 5.8-8.6 11.1-8.6 5.4 0 9.9 3.7 11.1 8.6.2.9.4 1.9.4 2.9s-.1 1.9-.4 2.9zM20 10c-5 0-9 4-9 9 0 .9.1 1.7.4 2.5 2-1.7 5.4-3.7 10.1-3.7-4.5 1.8-7.3 4.5-8.8 6.4C14.3 26.5 17 28 20 28c5 0 9-4 9-9s-4-9-9-9z"></path></g><!----></svg>